<svg xmlns="http://www.w3.org/2000/svg" data-name="Layer 2" viewBox="0 0 28 35" x="0px" y="0px"><title>UI</title><path d="M17.466,5a1,1,0,0,1-.866-.5,3,3,0,0,0-5.2,0,1,1,0,1,1-1.73-1,5,5,0,0,1,8.66,0A1,1,0,0,1,17.466,5Z"/><path d="M24,6H4A1,1,0,0,0,4,8H5V22.541A4.464,4.464,0,0,0,9.459,27h9.082A4.464,4.464,0,0,0,23,22.541V8h1a1,1,0,0,0,0-2ZM12,21a1,1,0,0,1-2,0V12a1,1,0,0,1,2,0Zm6,0a1,1,0,0,1-2,0V12a1,1,0,0,1,2,0Z"/><text x="0" y="43" fill="#000000" font-size="5px" font-weight="bold" font-family="'Helvetica Neue', Helvetica, Arial-Unicode, Arial, Sans-serif">Created by Ilham Fitrotul Hayat</text><text x="0" y="48" fill="#000000" font-size="5px" font-weight="bold" font-family="'Helvetica Neue', Helvetica, Arial-Unicode, Arial, Sans-serif">from the Noun Project</text></svg>